<svg version="1.1" xmlns="http://www.w3.org/2000/svg" xmlns:xlink="http://www.w3.org/1999/xlink" x="0px" y="0px"
	 width="176.87px" height="127.99px" viewBox="0 0 176.87 127.99" style="enable-background:new 0 0 176.87 127.99;"
	 xml:space="preserve">
<style type="text/css">
	.st0{fill:#FFFFFF;}
	.st1{fill:#CDE08A;}
</style>
<defs>
</defs>
<g>
	<g>
		<path class="st0" d="M0,113.69h2.68l0.25,1.9h0.09c1.18-1.23,2.53-2.25,4.28-2.25c2.04,0,3.21,0.93,3.85,2.5
			c1.33-1.42,2.71-2.5,4.49-2.5c2.94,0,4.31,2.02,4.31,5.54v8.75h-3.27v-8.33c0-2.3-0.68-3.16-2.15-3.16
			c-0.89,0-1.84,0.57-2.92,1.74v9.75H8.34v-8.33c0-2.3-0.68-3.16-2.15-3.16c-0.86,0-1.84,0.57-2.92,1.74v9.75H0V113.69z"/>
		<path class="st0" d="M21.8,122.44v-8.75h3.27v8.33c0,2.29,0.66,3.16,2.17,3.16c1.23,0,2.03-0.57,3.09-1.93v-9.56h3.27v13.95h-2.68
			l-0.25-2.06h-0.09c-1.23,1.45-2.58,2.4-4.49,2.4C23.11,127.99,21.8,125.97,21.8,122.44z"/>
		<path class="st0" d="M34.67,125.9l6.58-9.6h-5.84v-2.6h9.94v1.75l-6.58,9.6h6.8v2.6h-10.9V125.9z"/>
		<path class="st0" d="M45.27,125.9l6.58-9.6h-5.84v-2.6h9.94v1.75l-6.58,9.6h6.8v2.6h-10.9V125.9z"/>
		<path class="st0" d="M56.97,124.06v-16.48h3.27v16.65c0,0.81,0.36,1.09,0.7,1.09c0.15,0,0.26,0,0.51-0.06l0.41,2.44
			c-0.4,0.16-0.94,0.28-1.73,0.28C57.82,127.99,56.97,126.49,56.97,124.06z"/>
		<path class="st0" d="M61.76,120.68c0-4.53,3.15-7.33,6.43-7.33c3.77,0,5.76,2.73,5.76,6.63c0,0.62-0.07,1.25-0.14,1.59h-8.86
			c0.27,2.48,1.86,3.89,4.11,3.89c1.19,0,2.22-0.37,3.24-1.01l1.11,2.03c-1.33,0.9-3.01,1.51-4.78,1.51
			C64.78,127.99,61.76,125.28,61.76,120.68z M71.12,119.34c0-2.15-0.95-3.45-2.86-3.45c-1.62,0-3.06,1.22-3.34,3.45H71.12z"/>
		<path class="st0" d="M78.79,113.69h2.68l0.25,1.9h0.09c1.18-1.23,2.53-2.25,4.28-2.25c2.05,0,3.21,0.93,3.85,2.5
			c1.34-1.42,2.72-2.5,4.49-2.5c2.94,0,4.31,2.02,4.31,5.54v8.75h-3.27v-8.33c0-2.3-0.68-3.16-2.15-3.16
			c-0.89,0-1.84,0.57-2.92,1.74v9.75h-3.27v-8.33c0-2.3-0.68-3.16-2.15-3.16c-0.86,0-1.84,0.57-2.92,1.74v9.75h-3.27V113.69z"/>
		<path class="st0" d="M99.84,120.68c0-4.65,3.16-7.33,6.64-7.33c3.48,0,6.64,2.68,6.64,7.33c0,4.63-3.16,7.31-6.64,7.31
			C102.99,127.99,99.84,125.31,99.84,120.68z M109.74,120.68c0-2.79-1.23-4.66-3.27-4.66c-2.05,0-3.27,1.86-3.27,4.66
			c0,2.8,1.23,4.64,3.27,4.64C108.52,125.32,109.74,123.48,109.74,120.68z"/>
		<path class="st0" d="M113.44,120.68c0-4.65,3.16-7.33,6.64-7.33s6.64,2.68,6.64,7.33c0,4.63-3.16,7.31-6.64,7.31
			S113.44,125.31,113.44,120.68z M123.35,120.68c0-2.79-1.23-4.66-3.27-4.66c-2.04,0-3.27,1.86-3.27,4.66c0,2.8,1.23,4.64,3.27,4.64
			C122.13,125.32,123.35,123.48,123.35,120.68z"/>
		<path class="st0" d="M127.98,113.69h2.68l0.25,1.89H131c1.25-1.22,2.67-2.23,4.58-2.23c2.99,0,4.3,2.02,4.3,5.54v8.75h-3.27v-8.33
			c0-2.3-0.66-3.16-2.17-3.16c-1.23,0-2.03,0.6-3.18,1.74v9.75h-3.27V113.69z"/>
		<path class="st0" d="M145.22,109.4c0-1.1,0.86-1.85,2.02-1.85c1.16,0,2.02,0.75,2.02,1.85c0,1.08-0.86,1.85-2.02,1.85
			C146.08,111.25,145.22,110.48,145.22,109.4z M145.59,113.69h3.27v13.95h-3.27V113.69z"/>
		<path class="st0" d="M151.05,113.69h2.68l0.25,1.89h0.09c1.25-1.22,2.67-2.23,4.58-2.23c2.99,0,4.3,2.02,4.3,5.54v8.75h-3.27
			v-8.33c0-2.3-0.66-3.16-2.17-3.16c-1.23,0-2.03,0.6-3.18,1.74v9.75h-3.27V113.69z"/>
		<path class="st0" d="M164.97,113.69h2.68l0.25,1.89h0.09c1.25-1.22,2.67-2.23,4.58-2.23c2.99,0,4.3,2.02,4.3,5.54v8.75h-3.27
			v-8.33c0-2.3-0.66-3.16-2.17-3.16c-1.23,0-2.03,0.6-3.18,1.74v9.75h-3.27V113.69z"/>
	</g>
	<g>
		<path class="st1" d="M46.99,78.74c-21.71,0-39.37-17.66-39.37-39.37S25.28,0,46.99,0c7.29,0,14.41,2.01,20.59,5.81
			c0.84,0.51,1.19,1.55,0.85,2.47c-0.34,0.92-1.28,1.47-2.26,1.32c-1.57-0.25-3.18-0.38-4.8-0.38c-16.63,0-30.16,13.53-30.16,30.16
			c0,16.63,13.53,30.16,30.16,30.16c1.62,0,3.24-0.13,4.8-0.38c0.97-0.15,1.92,0.4,2.26,1.32c0.34,0.92-0.02,1.96-0.85,2.47
			C61.4,76.73,54.28,78.74,46.99,78.74z M46.99,4.12c-19.44,0-35.25,15.81-35.25,35.25s15.81,35.25,35.25,35.25
			c3.25,0,6.47-0.45,9.56-1.32C39.93,70.95,27.1,56.63,27.1,39.37c0-17.26,12.83-31.58,29.45-33.94
			C53.46,4.56,50.24,4.12,46.99,4.12z"/>
		<g>
			<path class="st1" d="M71.36,34.76l2.47-4.23l-4.4-1.92l0.83-2.55l4.7,1.07l0.46-4.86h2.71l0.46,4.85l4.7-1.06l0.83,2.55
				l-4.42,1.92l2.5,4.23l-2.18,1.59l-3.23-3.75l-3.26,3.75L71.36,34.76z"/>
		</g>
		<g>
			<path class="st1" d="M106.89,71.02l1.82-3.12l-3.24-1.42l0.61-1.88l3.47,0.79l0.34-3.59h2l0.34,3.58l3.47-0.78l0.62,1.88
				l-3.27,1.42l1.85,3.12l-1.61,1.17l-2.38-2.77l-2.41,2.77L106.89,71.02z"/>
		</g>
		<g>
			<path class="st1" d="M146.95,42.76l1.53-2.61l-2.71-1.19l0.51-1.57l2.9,0.66l0.29-3h1.68l0.29,2.99l2.9-0.65l0.52,1.57
				l-2.73,1.19l1.54,2.61l-1.35,0.98l-1.99-2.32l-2.01,2.32L146.95,42.76z"/>
		</g>
	</g>
</g>
</svg>

